<svg width="24" height="24" viewBox="0 0 24 24" fill="none" xmlns="http://www.w3.org/2000/svg">
<path d="M15 4H5V20H19V8H15V4ZM3 2.992C3 2.444 3.447 2 3.999 2H16L21 7V20.993C21.0009 21.1243 20.976 21.2545 20.9266 21.3762C20.8772 21.4979 20.8043 21.6087 20.7121 21.7022C20.6199 21.7957 20.5101 21.8701 20.3892 21.9212C20.2682 21.9723 20.1383 21.9991 20.007 22H3.993C3.73038 21.9982 3.47902 21.8931 3.29322 21.7075C3.10742 21.5219 3.00209 21.2706 3 21.008V2.992ZM13.529 14.446C12.6903 14.936 11.7021 15.1043 10.7485 14.9195C9.79488 14.7346 8.94106 14.2093 8.34623 13.4414C7.75139 12.6735 7.45614 11.7154 7.51553 10.7459C7.57492 9.77639 7.98489 8.86156 8.669 8.172C9.35745 7.48368 10.2733 7.07006 11.2449 7.00865C12.2165 6.94725 13.1771 7.24228 13.9467 7.83845C14.7163 8.43463 15.2421 9.29101 15.4255 10.2471C15.6089 11.2032 15.4374 12.1934 14.943 13.032L17.153 15.242L15.739 16.657L13.529 14.447V14.446ZM12.911 12.414C13.102 12.2295 13.2544 12.0088 13.3592 11.7648C13.464 11.5208 13.5192 11.2584 13.5215 10.9928C13.5238 10.7272 13.4732 10.4639 13.3726 10.2181C13.2721 9.9723 13.1236 9.749 12.9358 9.56121C12.748 9.37342 12.5247 9.22492 12.2789 9.12436C12.0331 9.02379 11.7698 8.97319 11.5042 8.9755C11.2386 8.97781 10.9762 9.03298 10.7322 9.1378C10.4882 9.24262 10.2675 9.39498 10.083 9.586C9.71868 9.9632 9.5171 10.4684 9.52165 10.9928C9.52621 11.5172 9.73655 12.0188 10.1074 12.3896C10.4782 12.7605 10.9798 12.9708 11.5042 12.9753C12.0286 12.9799 12.5338 12.7783 12.911 12.414Z" fill="#85A5C5"/>
</svg>
