<svg width="18" height="20" viewBox="0 0 18 20" fill="none" xmlns="http://www.w3.org/2000/svg">
<path d="M18 0.992V19.008C17.9979 19.2706 17.8926 19.5219 17.7068 19.7075C17.521 19.8931 17.2696 19.9982 17.007 20H0.993C0.72981 20 0.47739 19.8955 0.2912 19.7095C0.105 19.5235 0.00027 19.2712 0 19.008V0.992C0.00209 0.72938 0.10742 0.47813 0.29322 0.29251C0.47902 0.1069 0.73038 0.00183 0.993 0H17.007C17.555 0 18 0.444 18 0.992ZM16 2H2V18H16V2ZM8.293 11.121L12.536 6.879L13.95 8.293L8.293 13.95L4.403 10.06L5.818 8.646L8.293 11.121Z" fill="white"/>
</svg>
